<?xml version="1.0" encoding="UTF-8"?>
<svg width="32" height="32" viewBox="0 0 32 32" fill="none" xmlns="http://www.w3.org/2000/svg">
  <!-- Background circle with gradient -->
  <defs>
    <linearGradient id="bg" x1="0%" y1="0%" x2="100%" y2="100%">
      <stop offset="0%" style="stop-color:#3b82f6;stop-opacity:1" />
      <stop offset="100%" style="stop-color:#1e40af;stop-opacity:1" />
    </linearGradient>
    <linearGradient id="flame" x1="0%" y1="0%" x2="100%" y2="100%">
      <stop offset="0%" style="stop-color:#f59e0b;stop-opacity:1" />
      <stop offset="100%" style="stop-color:#ef4444;stop-opacity:1" />
    </linearGradient>
  </defs>
  
  <!-- Background circle -->
  <circle cx="16" cy="16" r="15" fill="url(#bg)" stroke="#1e40af" stroke-width="1"/>
  
  <!-- Rocket body -->
  <path d="M16 5 L19 8 L19 19 L16 21 L13 19 L13 8 Z" fill="#ffffff" stroke="#e5e7eb" stroke-width="0.5"/>
  
  <!-- Rocket nose cone -->
  <path d="M16 5 L19 8 L16 3 L13 8 Z" fill="#f97316"/>
  
  <!-- Rocket fins -->
  <path d="M13 17 L11 19 L13 19 Z" fill="#dc2626"/>
  <path d="M19 17 L21 19 L19 19 Z" fill="#dc2626"/>
  
  <!-- Rocket window -->
  <circle cx="16" cy="11" r="2" fill="#60a5fa" stroke="#3b82f6" stroke-width="0.5"/>
  
  <!-- Rocket details -->
  <rect x="15" y="14" width="2" height="4" fill="#e5e7eb"/>
  
  <!-- Flame/exhaust -->
  <path d="M13 21 L16 27 L19 21 L16 25 Z" fill="url(#flame)"/>
  <path d="M14.5 21 L16 28 L17.5 21 Z" fill="#fbbf24"/>
  
  <!-- Small stars/sparkles -->
  <circle cx="8" cy="8" r="0.5" fill="#fbbf24"/>
  <circle cx="24" cy="12" r="0.5" fill="#fbbf24"/>
  <circle cx="6" cy="20" r="0.5" fill="#fbbf24"/>
</svg> 